<?xml version="1.0" standalone="no"?>
<!DOCTYPE svg PUBLIC "-//W3C//DTD SVG 20010904//EN"
 "http://www.w3.org/TR/2001/REC-SVG-20010904/DTD/svg10.dtd">
<svg version="1.0" xmlns="http://www.w3.org/2000/svg"
 width="96.000000pt" height="96.000000pt" viewBox="0 0 96.000000 96.000000"
 preserveAspectRatio="xMidYMid meet">

<g transform="translate(0.000000,96.000000) scale(0.100000,-0.100000)"
fill="#000000" stroke="none">
<path d="M0 480 l0 -480 480 0 480 0 0 480 0 480 -480 0 -480 0 0 -480z m635
363 c54 -28 156 -120 155 -140 -1 -4 -14 8 -31 29 -63 77 -175 129 -279 130
-92 0 -167 -31 -238 -97 -164 -151 -170 -388 -14 -544 76 -76 128 -96 247 -96
93 0 104 2 150 29 125 74 197 181 215 318 l9 73 -4 -70 c-12 -225 -188 -388
-400 -372 -88 6 -149 34 -221 99 -76 70 -116 155 -122 259 -7 122 21 204 99
292 83 94 163 129 289 124 71 -3 95 -8 145 -34z m-48 -48 c58 -24 111 -64 133
-100 35 -56 16 -64 -30 -12 -16 18 -53 46 -82 63 -46 25 -63 29 -128 29 -88 0
-145 -23 -203 -79 -91 -90 -119 -227 -67 -330 40 -79 142 -166 195 -166 8 0
15 -7 15 -16 0 -32 -95 7 -164 67 -68 60 -100 135 -100 234 0 94 27 165 90
234 83 92 226 124 341 76z m-88 -93 c26 -16 28 -19 15 -37 -8 -10 -14 -28 -14
-39 0 -18 -12 -24 -73 -39 -39 -9 -80 -17 -89 -17 -15 0 -18 -9 -18 -45 0 -69
35 -149 83 -190 55 -48 85 -55 109 -25 10 12 18 19 18 14 0 -19 63 55 100 118
23 37 42 68 44 68 2 0 0 -21 -5 -46 -17 -91 -89 -187 -172 -231 -27 -14 -31
-13 -70 12 -110 74 -157 161 -164 311 l-6 101 52 6 c29 3 76 17 104 31 29 13
53 25 54 25 2 1 16 -7 32 -17z m320 -61 c0 -14 -1 -14 -6 -1 -3 8 -10 24 -15
35 -9 20 -9 20 6 1 9 -11 16 -27 15 -35z m-332 -77 c47 -6 51 -8 40 -25 -9
-14 -24 -19 -54 -19 -32 0 -43 -4 -43 -15 0 -11 12 -15 50 -15 28 0 50 -4 50
-8 0 -12 -39 -31 -70 -34 -22 -3 -26 -9 -30 -51 l-5 -48 -22 21 c-21 19 -23
30 -23 110 l0 90 28 0 c15 0 50 -3 79 -6z"/>
</g>
</svg>
